<svg id="Layer_1" version="1.1" viewBox="0 0 512 512" xml:space="preserve" xmlns="http://www.w3.org/2000/svg"><style>.st3{fill:#dcc5a1}.st4{fill:#edd9b4}.st6{fill:none}</style><path d="M73.1 381.5c.6-1 1.2-2 1.8-2.9.1-.1.2-.3.3-.4.7-1 1.4-1.9 2.1-2.7.2-.2.3-.4.5-.6.7-.8 1.5-1.6 2.2-2.3 3.1-2.8 7.6-6.5 14.6-11.4 17.7-12.4 51.3-32.1 118.9-61.7l86.1.6c94.1 41.3 121.3 62.7 132.4 72.5.8.7 1.5 1.4 2.2 2.3.2.2.3.4.5.6.7.8 1.4 1.7 2.1 2.7.1.1.2.3.3.4.6.9 1.2 1.9 1.8 2.9.1.2.3.4.4.7.4.8.8 1.5 1.3 2.3 19.8-32.6 31.2-70.9 31.2-111.8C471.7 153.6 375.1 57 256 57 136.9 57 40.3 153.6 40.3 272.8c0 40.9 11.4 79.2 31.2 111.8.4-.8.8-1.6 1.3-2.3 0-.3.2-.6.3-.8z" fill="#bd8169"/><path d="M440.6 384.5c-.4-.8-.8-1.6-1.3-2.3-.1-.2-.3-.4-.4-.7-.6-1-1.2-2-1.8-2.9-.1-.1-.2-.3-.3-.4-.7-1-1.4-1.9-2.1-2.7-.2-.2-.3-.4-.5-.6-.7-.8-1.5-1.6-2.2-2.3-11.2-9.9-38.3-31.3-132.4-72.5l-86.1-.6c-67.6 29.6-101.2 49.3-118.9 61.7-6.9 4.9-11.4 8.6-14.6 11.4-.8.7-1.5 1.4-2.2 2.3-.2.2-.3.4-.5.6-.7.8-1.4 1.7-2.1 2.7-.1.1-.2.3-.3.4-.6.9-1.2 1.9-1.8 2.9-.1.2-.3.4-.4.7-.4.8-.8 1.5-1.3 2.3 37.8 62.3 106.3 104 184.6 104 78.2 0 146.7-41.6 184.6-104z" fill="#a97c50"/><path class="st3" d="M210.3 217.3v104.3c12.6 14.8 29.1 22.5 45.7 22.7V175.1c-22.8 0-45.7 14.1-45.7 42.2z"/><path class="st4" d="M256 175.1v169.2c16.6.1 33.1-7.3 45.7-22.7V217.3c0-28.1-22.9-42.2-45.7-42.2z"/><path d="M210.3 267.8v3.3s23.3 27.7 45.6 28.7 45.8-26.8 45.8-26.8v-5.1" fill="#bc9f82"/><path class="st6" d="M210.3 267.8h91.4v32h-91.4z"/><path class="st6" d="M210.3 285.8h91.4v58.5h-91.4z"/><path d="M259.5 214.4c-2 0-3.4 2.9-3.4 2.9s-1.5-2.9-3.4-2.9c-8 .1-41.1 3.3-50.7 15.6 0 0 46.7-.8 49.3-1.6 2.6-.8 4.9-5.8 4.9-5.8s2.3 5.1 4.9 5.8c2.6.8 49.3 1.6 49.3 1.6-9.8-12.2-42.8-15.5-50.9-15.6" fill-rule="evenodd" clip-rule="evenodd" fill="#80604b"/><path class="st3" d="M256.1 30.1c-81.3 0-97.5 64.4-95 121.6-.1 0-.2 0-.3.1-8 2.6-10.9 16.1-6.3 30 2.8 8.5 7.7 15.2 12.9 18.5 4.1 19.3 9 33.5 11.2 37.1 10.1 16.3 54.8 52.1 77.5 52.1V30.1z"/><path class="st4" d="M351.1 151.9c2.6-57.2-13.6-121.8-95-121.8v259.4c22.7 0 67.4-35.9 77.5-52.1 2.3-3.6 7.2-18 11.3-37.5 5-3.5 9.6-9.9 12.3-18.1 4.5-13.8 1.8-27.1-6.1-29.9z"/><path d="M301.7 287.1l3.1 15.3-10.5 82-38.1-40.1zm-91.4 0l-4 15.6 11.2 80.9 38.7-39.3z" fill-rule="evenodd" clip-rule="evenodd" fill="#fff"/><path d="M355.9 161.9c7.3-35.8 2.6-119.2-25.3-116.4-25.9-26.3-116.2-31.2-141-2.8-56.6 10.9-30.4 119.7-30.4 119.7 1.8 10.6 4.2 20.3 6.7 28.4 3.8-.3 7.6-.5 11.4-.7-4.1-7.5-7.5-15.2-8.8-20.8-.7-3.2-2.4-14.9-2.3-17.5.8-19.6 15-76.5 39.3-81 9.5-1.7 33.2 19.6 48.8 19.6 16.4-.4 36.9-22 47.5-20.5 25.3 3.4 46.8 55.7 46.6 81 0 3.2-4.1 22.6-10.2 36.4 4.1-.2 8.2-.5 12.2-.8 2.1-7.3 4-15.6 5.5-24.5v-.1z" fill="#80604b"/><path d="M209.1 145.2c6.4 0 11.5 5.8 11.5 13.1 0 7.2-5.2 13.1-11.5 13.1-6.4 0-11.5-5.9-11.5-13.1-.1-7.2 5.1-13.1 11.5-13.1m93.5 0c6.4 0 11.5 5.8 11.5 13.1 0 7.2-5.2 13.1-11.5 13.1-6.4 0-11.5-5.9-11.5-13.1-.1-7.2 5.1-13.1 11.5-13.1" fill="#342214"/><path d="M232 227.9c4.1 9 13.2 15.4 23.8 15.4 10.6 0 19.7-6.3 23.8-15.4H232z" fill="#fff"/></svg>